<?xml version="1.0" encoding="utf-8"?>
<!-- Generator: Adobe Illustrator 19.2.0, SVG Export Plug-In . SVG Version: 6.00 Build 0)  -->
<svg version="1.1" id="Layer_1" xmlns="http://www.w3.org/2000/svg" xmlns:xlink="http://www.w3.org/1999/xlink" x="0px" y="0px"
	 viewBox="0 0 1000 900" style="enable-background:new 0 0 1000 900;" xml:space="preserve">
<style type="text/css">
	.st0{fill:none;stroke:#CCCCCC;}
	.st1{font-family:'CenturyGothic-Bold';}
	.st2{font-size:10px;}
	.st3{fill:#BF6969;}
	.st4{fill:#BFA269;}
	.st5{fill:#A2BF69;}
	.st6{fill:#69BF69;}
	.st7{fill:#69BFA2;}
	.st8{fill:#69A2BF;}
	.st9{fill:#6969BF;}
	.st10{fill:#A269BF;}
	.st11{fill:#BF69A2;}
</style>
<text transform="matrix(1 0 0 1 0 -7)" class="st1 st2">null</text>
<g transform="translate(0,0)">
	<g transform="translate(0,850)">
		<line class="st0" x1="50" y1="0" x2="44" y2="0"/>
		<text transform="matrix(1 0 0 1 35.4385 3.2)" class="st1 st2">0</text>
	</g>
	<g transform="translate(0,825.1752336448599)">
		<line class="st0" x1="50" y1="0" x2="44" y2="0"/>
		<text transform="matrix(1 0 0 1 29.877 3.2)" class="st1 st2">50</text>
	</g>
	<g transform="translate(0,800.3504672897196)">
		<line class="st0" x1="50" y1="0" x2="44" y2="0"/>
		<text transform="matrix(1 0 0 1 24.3154 3.2)" class="st1 st2">100</text>
	</g>
	<g transform="translate(0,775.5257009345794)">
		<line class="st0" x1="50" y1="0" x2="44" y2="0"/>
		<text transform="matrix(1 0 0 1 24.3154 3.2)" class="st1 st2">150</text>
	</g>
	<g transform="translate(0,750.7009345794391)">
		<line class="st0" x1="50" y1="0" x2="44" y2="0"/>
		<text transform="matrix(1 0 0 1 24.3154 3.2)" class="st1 st2">200</text>
	</g>
	<g transform="translate(0,725.876168224299)">
		<line class="st0" x1="50" y1="0" x2="44" y2="0"/>
		<text transform="matrix(1 0 0 1 24.3154 3.2)" class="st1 st2">250</text>
	</g>
	<g transform="translate(0,701.0514018691589)">
		<line class="st0" x1="50" y1="0" x2="44" y2="0"/>
		<text transform="matrix(1 0 0 1 24.3154 3.2)" class="st1 st2">300</text>
	</g>
	<g transform="translate(0,676.2266355140187)">
		<line class="st0" x1="50" y1="0" x2="44" y2="0"/>
		<text transform="matrix(1 0 0 1 24.3154 3.2)" class="st1 st2">350</text>
	</g>
	<g transform="translate(0,651.4018691588785)">
		<line class="st0" x1="50" y1="0" x2="44" y2="0"/>
		<text transform="matrix(1 0 0 1 24.3154 3.2)" class="st1 st2">400</text>
	</g>
	<g transform="translate(0,626.5771028037383)">
		<line class="st0" x1="50" y1="0" x2="44" y2="0"/>
		<text transform="matrix(1 0 0 1 24.3154 3.2)" class="st1 st2">450</text>
	</g>
	<g transform="translate(0,601.752336448598)">
		<line class="st0" x1="50" y1="0" x2="44" y2="0"/>
		<text transform="matrix(1 0 0 1 24.3154 3.2)" class="st1 st2">500</text>
	</g>
	<g transform="translate(0,576.9275700934579)">
		<line class="st0" x1="50" y1="0" x2="44" y2="0"/>
		<text transform="matrix(1 0 0 1 24.3154 3.2)" class="st1 st2">550</text>
	</g>
	<g transform="translate(0,552.1028037383178)">
		<line class="st0" x1="50" y1="0" x2="44" y2="0"/>
		<text transform="matrix(1 0 0 1 24.3154 3.2)" class="st1 st2">600</text>
	</g>
	<g transform="translate(0,527.2780373831775)">
		<line class="st0" x1="50" y1="0" x2="44" y2="0"/>
		<text transform="matrix(1 0 0 1 24.3154 3.2)" class="st1 st2">650</text>
	</g>
	<g transform="translate(0,502.45327102803725)">
		<line class="st0" x1="50" y1="0" x2="44" y2="0"/>
		<text transform="matrix(1 0 0 1 24.3154 3.2)" class="st1 st2">700</text>
	</g>
	<g transform="translate(0,477.62850467289724)">
		<line class="st0" x1="50" y1="0" x2="44" y2="0"/>
		<text transform="matrix(1 0 0 1 24.3154 3.2)" class="st1 st2">750</text>
	</g>
	<g transform="translate(0,452.80373831775694)">
		<line class="st0" x1="50" y1="0" x2="44" y2="0"/>
		<text transform="matrix(1 0 0 1 24.3154 3.2)" class="st1 st2">800</text>
	</g>
	<g transform="translate(0,427.9789719626167)">
		<line class="st0" x1="50" y1="0" x2="44" y2="0"/>
		<text transform="matrix(1 0 0 1 24.3154 3.2)" class="st1 st2">850</text>
	</g>
	<g transform="translate(0,403.15420560747657)">
		<line class="st0" x1="50" y1="0" x2="44" y2="0"/>
		<text transform="matrix(1 0 0 1 24.3154 3.2)" class="st1 st2">900</text>
	</g>
	<g transform="translate(0,378.3294392523364)">
		<line class="st0" x1="50" y1="0" x2="44" y2="0"/>
		<text transform="matrix(1 0 0 1 24.3154 3.2)" class="st1 st2">950</text>
	</g>
	<g transform="translate(0,353.50467289719614)">
		<line class="st0" x1="50" y1="0" x2="44" y2="0"/>
		<text transform="matrix(1 0 0 1 15.9756 3.2)" class="st1 st2">1,000</text>
	</g>
	<g transform="translate(0,328.679906542056)">
		<line class="st0" x1="50" y1="0" x2="44" y2="0"/>
		<text transform="matrix(1 0 0 1 15.9756 3.2)" class="st1 st2">1,050</text>
	</g>
	<g transform="translate(0,303.85514018691583)">
		<line class="st0" x1="50" y1="0" x2="44" y2="0"/>
		<text transform="matrix(1 0 0 1 15.9756 3.2)" class="st1 st2">1,100</text>
	</g>
	<g transform="translate(0,279.0303738317756)">
		<line class="st0" x1="50" y1="0" x2="44" y2="0"/>
		<text transform="matrix(1 0 0 1 15.9756 3.2)" class="st1 st2">1,150</text>
	</g>
	<g transform="translate(0,254.20560747663544)">
		<line class="st0" x1="50" y1="0" x2="44" y2="0"/>
		<text transform="matrix(1 0 0 1 15.9756 3.2)" class="st1 st2">1,200</text>
	</g>
	<g transform="translate(0,229.3808411214952)">
		<line class="st0" x1="50" y1="0" x2="44" y2="0"/>
		<text transform="matrix(1 0 0 1 15.9756 3.2)" class="st1 st2">1,250</text>
	</g>
	<g transform="translate(0,204.55607476635504)">
		<line class="st0" x1="50" y1="0" x2="44" y2="0"/>
		<text transform="matrix(1 0 0 1 15.9756 3.2)" class="st1 st2">1,300</text>
	</g>
	<g transform="translate(0,179.73130841121488)">
		<line class="st0" x1="50" y1="0" x2="44" y2="0"/>
		<text transform="matrix(1 0 0 1 15.9756 3.2)" class="st1 st2">1,350</text>
	</g>
	<g transform="translate(0,154.90654205607464)">
		<line class="st0" x1="50" y1="0" x2="44" y2="0"/>
		<text transform="matrix(1 0 0 1 15.9756 3.2)" class="st1 st2">1,400</text>
	</g>
	<g transform="translate(0,130.0817757009345)">
		<line class="st0" x1="50" y1="0" x2="44" y2="0"/>
		<text transform="matrix(1 0 0 1 15.9756 3.2)" class="st1 st2">1,450</text>
	</g>
	<g transform="translate(0,105.25700934579433)">
		<line class="st0" x1="50" y1="0" x2="44" y2="0"/>
		<text transform="matrix(1 0 0 1 15.9756 3.2)" class="st1 st2">1,500</text>
	</g>
	<g transform="translate(0,80.43224299065409)">
		<line class="st0" x1="50" y1="0" x2="44" y2="0"/>
		<text transform="matrix(1 0 0 1 15.9756 3.2)" class="st1 st2">1,550</text>
	</g>
	<g transform="translate(0,55.60747663551393)">
		<line class="st0" x1="50" y1="0" x2="44" y2="0"/>
		<text transform="matrix(1 0 0 1 15.9756 3.2)" class="st1 st2">1,600</text>
	</g>
	<g transform="translate(0,30.78271028037368)">
		<line class="st0" x1="50" y1="0" x2="44" y2="0"/>
		<text transform="matrix(1 0 0 1 15.9756 3.2)" class="st1 st2">1,650</text>
	</g>
	<g transform="translate(0,5.957943925233527)">
		<line class="st0" x1="50" y1="0" x2="44" y2="0"/>
		<text transform="matrix(1 0 0 1 15.9756 3.2)" class="st1 st2">1,700</text>
	</g>
	<path class="st0" d="M44,0h6v850h-6"/>
</g>
<rect x="56" y="838.5" class="st3" width="53" height="11.5"/>
<rect x="115" class="st4" width="53" height="850"/>
<rect x="174" y="843.9" class="st5" width="53" height="6.1"/>
<rect x="233" y="503.6" class="st6" width="53" height="346.4"/>
<rect x="292" y="838" class="st7" width="53" height="12"/>
<rect x="351" y="849.8" class="st7" width="53" height="0.2"/>
<rect x="410" y="828.8" class="st8" width="53" height="21.2"/>
<rect x="469" y="849" class="st9" width="53" height="1"/>
<rect x="528" y="816.5" class="st7" width="53" height="33.5"/>
<rect x="587" y="849.9" class="st4" width="53" height="0.1"/>
<rect x="646" y="683.2" class="st3" width="53" height="166.8"/>
<rect x="705" y="826.1" class="st10" width="53" height="23.9"/>
<rect x="764" y="820.7" class="st3" width="53" height="29.3"/>
<rect x="823" y="849.8" class="st11" width="53" height="0.2"/>
<rect x="882" y="843.3" class="st3" width="53" height="6.7"/>
<rect x="941" y="819.7" class="st4" width="53" height="30.3"/>
<line class="st0" x1="82.5" y1="850" x2="82.5" y2="856"/>
<text transform="matrix(1 0 0 1 67.2192 866.1)" class="st1 st2">8-track</text>
<line class="st0" x1="141.5" y1="848.4" x2="141.5" y2="874.1"/>
<text transform="matrix(1 0 0 1 134.2783 889.1)" class="st1 st2">CD</text>
<line class="st0" x1="200.5" y1="850" x2="200.5" y2="856"/>
<text transform="matrix(1 0 0 1 178.8252 866.1)" class="st1 st2">CD single</text>
<line class="st0" x1="259.5" y1="852.5" x2="259.5" y2="878.2"/>
<text transform="matrix(1 0 0 1 241.1577 890.0502)" class="st1 st2">Cassete</text>
<line class="st0" x1="318.5" y1="850" x2="318.5" y2="856"/>
<text transform="matrix(1 0 0 1 285.7046 866.1)" class="st1 st2">Cassete single</text>
<line class="st0" x1="377.5" y1="852.5" x2="377.5" y2="878.2"/>
<text transform="matrix(1 0 0 1 353.042 890.0502)" class="st1 st2">DVD Audio</text>
<line class="st0" x1="436.5" y1="850" x2="436.5" y2="856"/>
<text transform="matrix(1 0 0 1 398.978 866.1)" class="st1 st2">Download Album</text>
<line class="st0" x1="495.5" y1="852.5" x2="495.5" y2="878.2"/>
<text transform="matrix(1 0 0 1 444.731 890.0502)" class="st1 st2">Download Music Video</text>
<line class="st0" x1="554.5" y1="850" x2="554.5" y2="856"/>
<text transform="matrix(1 0 0 1 516.9756 866.1)" class="st1 st2">Download Single</text>
<line class="st0" x1="613.5" y1="852.5" x2="613.5" y2="878.2"/>
<text transform="matrix(1 0 0 1 601.2734 890.0502)" class="st1 st2">Kiosk</text>
<line class="st0" x1="672.5" y1="850" x2="672.5" y2="856"/>
<text transform="matrix(1 0 0 1 658.3252 866.1)" class="st1 st2">LP/EP</text>
<line class="st0" x1="731.5" y1="852.3" x2="731.5" y2="878"/>
<text transform="matrix(1 0 0 1 716.771 890.0004)" class="st1 st2">Mobile</text>
<line class="st0" x1="790.5" y1="850" x2="790.5" y2="856"/>
<text transform="matrix(1 0 0 1 764.1011 866.1)" class="st1 st2">Music video</text>
<line class="st0" x1="849.5" y1="852.5" x2="849.5" y2="878.2"/>
<text transform="matrix(1 0 0 1 835.6084 890.0502)" class="st1 st2">SACD</text>
<line class="st0" x1="908.5" y1="850" x2="908.5" y2="856"/>
<text transform="matrix(1 0 0 1 880.9854 866.1)" class="st1 st2">Subscription</text>
<line class="st0" x1="967.5" y1="852.5" x2="967.5" y2="878.2"/>
<text transform="matrix(1 0 0 1 943.0444 890.0502)" class="st1 st2">vinyl single</text>
<path class="st0" d="M50,856v-6h950v6"/>
</svg>
