<?xml version="1.0" encoding="utf-8"?>
<!-- Generator: Adobe Illustrator 19.2.0, SVG Export Plug-In . SVG Version: 6.00 Build 0)  -->
<svg version="1.1" id="Layer_1" xmlns="http://www.w3.org/2000/svg" xmlns:xlink="http://www.w3.org/1999/xlink" x="0px" y="0px"
	 viewBox="0 0 900 1000" style="enable-background:new 0 0 900 1000;" xml:space="preserve">
<style type="text/css">
	.st0{fill:none;stroke:#CCCCCC;stroke-width:5;}
	.st1{fill:none;stroke:#CCCCCC;stroke-width:3;}
	.st2{fill:none;stroke:#CCCCCC;stroke-width:2;}
	.st3{fill:#999999;}
	.st4{fill:#EEEEEE;stroke:#999999;stroke-width:3;}
	.st5{font-family:'CenturyGothic-Bold';}
	.st6{font-size:13px;}
	.st7{fill:#EEEEEE;stroke:#999999;stroke-width:2;}
	.st8{opacity:0.7;}
	.st9{font-family:'CenturyGothic-BoldItalic';}
	.st10{font-size:10px;}
	.st11{fill:#EEEEEE;stroke:#999999;}
	.st12{opacity:0.6;}
	.st13{font-family:'CenturyGothic-Italic';}
	.st14{opacity:0.7;enable-background:new    ;}
</style>
<path class="st0" d="M40,528.9c123.3,0,123.3-409.1,246.7-409.1"/>
<path class="st0" d="M40,528.9c123.3,0,123.3-187.9,246.7-187.9"/>
<path class="st0" d="M40,528.9c123.3,0,123.3-0.8,246.7-0.8"/>
<path class="st0" d="M40,528.9c123.3,0,123.3,203,246.7,203"/>
<path class="st0" d="M40,528.9c123.3,0,123.3,394.8,246.7,394.8"/>
<path class="st1" d="M286.7,119.8C410,119.8,410,18.1,533.3,18.1"/>
<path class="st1" d="M286.7,119.8c123.3,0,123.3-71.6,246.7-71.6"/>
<path class="st1" d="M286.7,119.8c123.3,0,123.3-47.5,246.7-47.5"/>
<path class="st1" d="M286.7,119.8c123.3,0,123.3-23.4,246.7-23.4"/>
<path class="st1" d="M286.7,119.8c123.3,0,123.3,0.7,246.7,0.7"/>
<path class="st1" d="M286.7,119.8c123.3,0,123.3,24.8,246.7,24.8"/>
<path class="st1" d="M286.7,119.8c123.3,0,123.3,48.9,246.7,48.9"/>
<path class="st1" d="M286.7,119.8c123.3,0,123.3,73,246.7,73"/>
<path class="st1" d="M286.7,119.8c123.3,0,123.3,97.1,246.7,97.1"/>
<path class="st2" d="M533.3,18.1c123.3,0,123.3-6,246.7-6"/>
<path class="st2" d="M533.3,18.1c123.3,0,123.3,6,246.7,6"/>
<path class="st2" d="M533.3,48.2c123.3,0,123.3,0,246.7,0"/>
<path class="st2" d="M533.3,72.3c123.3,0,123.3,0,246.7,0"/>
<path class="st2" d="M533.3,96.4c123.3,0,123.3,0,246.7,0"/>
<path class="st2" d="M533.3,120.5c123.3,0,123.3,0,246.7,0"/>
<path class="st2" d="M533.3,144.6c123.3,0,123.3,0,246.7,0"/>
<path class="st2" d="M533.3,168.7c123.3,0,123.3,0,246.7,0"/>
<path class="st2" d="M533.3,192.8c123.3,0,123.3,0,246.7,0"/>
<path class="st2" d="M533.3,216.9c123.3,0,123.3,0,246.7,0"/>
<path class="st1" d="M286.7,341c123.3,0,123.3-75.9,246.7-75.9"/>
<path class="st1" d="M286.7,341c123.3,0,123.3-21.7,246.7-21.7"/>
<path class="st1" d="M286.7,341c123.3,0,123.3,8.4,246.7,8.4"/>
<path class="st1" d="M286.7,341c123.3,0,123.3,32.5,246.7,32.5"/>
<path class="st1" d="M286.7,341c123.3,0,123.3,56.6,246.7,56.6"/>
<path class="st2" d="M533.3,265.1c123.3,0,123.3-24.1,246.7-24.1"/>
<path class="st2" d="M533.3,265.1c123.3,0,123.3-12,246.7-12"/>
<path class="st2" d="M533.3,265.1c123.3,0,123.3,0,246.7,0"/>
<path class="st2" d="M533.3,265.1c123.3,0,123.3,12,246.7,12"/>
<path class="st2" d="M533.3,265.1c123.3,0,123.3,24.1,246.7,24.1"/>
<path class="st2" d="M533.3,319.3c123.3,0,123.3-6,246.7-6"/>
<path class="st2" d="M533.3,319.3c123.3,0,123.3,6,246.7,6"/>
<path class="st2" d="M533.3,349.4c123.3,0,123.3,0,246.7,0"/>
<path class="st2" d="M533.3,373.5c123.3,0,123.3,0,246.7,0"/>
<path class="st2" d="M533.3,397.6c123.3,0,123.3,0,246.7,0"/>
<path class="st1" d="M286.7,528.1c123.3,0,123.3-106.4,246.7-106.4"/>
<path class="st1" d="M286.7,528.1c123.3,0,123.3-76.3,246.7-76.3"/>
<path class="st1" d="M286.7,528.1c123.3,0,123.3-46.2,246.7-46.2"/>
<path class="st1" d="M286.7,528.1C410,528.1,410,506,533.3,506"/>
<path class="st1" d="M286.7,528.1c123.3,0,123.3,2,246.7,2"/>
<path class="st1" d="M286.7,528.1c123.3,0,123.3,26.1,246.7,26.1"/>
<path class="st1" d="M286.7,528.1c123.3,0,123.3,50.2,246.7,50.2"/>
<path class="st1" d="M286.7,528.1c123.3,0,123.3,74.3,246.7,74.3"/>
<path class="st1" d="M286.7,528.1c123.3,0,123.3,98.4,246.7,98.4"/>
<path class="st2" d="M533.3,421.7c123.3,0,123.3,0,246.7,0"/>
<path class="st2" d="M533.3,451.8c123.3,0,123.3-6,246.7-6"/>
<path class="st2" d="M533.3,451.8c123.3,0,123.3,6,246.7,6"/>
<path class="st2" d="M533.3,481.9c123.3,0,123.3,0,246.7,0"/>
<path class="st2" d="M533.3,506c123.3,0,123.3,0,246.7,0"/>
<path class="st2" d="M533.3,530.1c123.3,0,123.3,0,246.7,0"/>
<path class="st2" d="M533.3,554.2c123.3,0,123.3,0,246.7,0"/>
<path class="st2" d="M533.3,578.3c123.3,0,123.3,0,246.7,0"/>
<path class="st2" d="M533.3,602.4c123.3,0,123.3,0,246.7,0"/>
<path class="st2" d="M533.3,626.5c123.3,0,123.3,0,246.7,0"/>
<path class="st1" d="M286.7,731.9c123.3,0,123.3-75.3,246.7-75.3"/>
<path class="st1" d="M286.7,731.9c123.3,0,123.3-21.1,246.7-21.1"/>
<path class="st1" d="M286.7,731.9c123.3,0,123.3,33.1,246.7,33.1"/>
<path class="st1" d="M286.7,731.9c123.3,0,123.3,63.3,246.7,63.3"/>
<path class="st2" d="M533.3,656.6c123.3,0,123.3-6,246.7-6"/>
<path class="st2" d="M533.3,656.6c123.3,0,123.3,6,246.7,6"/>
<path class="st2" d="M533.3,710.8c123.3,0,123.3-24.1,246.7-24.1"/>
<path class="st2" d="M533.3,710.8c123.3,0,123.3-12,246.7-12"/>
<path class="st2" d="M533.3,710.8c123.3,0,123.3,0,246.7,0"/>
<path class="st2" d="M533.3,710.8c123.3,0,123.3,12,246.7,12"/>
<path class="st2" d="M533.3,710.8c123.3,0,123.3,24.1,246.7,24.1"/>
<path class="st2" d="M533.3,765.1c123.3,0,123.3-6,246.7-6"/>
<path class="st2" d="M533.3,765.1c123.3,0,123.3,6,246.7,6"/>
<path class="st2" d="M533.3,795.2c123.3,0,123.3,0,246.7,0"/>
<path class="st1" d="M286.7,923.7c123.3,0,123.3-80.3,246.7-80.3"/>
<path class="st1" d="M286.7,923.7c123.3,0,123.3-32.1,246.7-32.1"/>
<path class="st1" d="M286.7,923.7c123.3,0,123.3-8,246.7-8"/>
<path class="st1" d="M286.7,923.7c123.3,0,123.3,16.1,246.7,16.1"/>
<path class="st1" d="M286.7,923.7c123.3,0,123.3,40.2,246.7,40.2"/>
<path class="st1" d="M286.7,923.7C410,923.7,410,988,533.3,988"/>
<path class="st2" d="M533.3,843.4c123.3,0,123.3-24.1,246.7-24.1"/>
<path class="st2" d="M533.3,843.4c123.3,0,123.3-12,246.7-12"/>
<path class="st2" d="M533.3,843.4c123.3,0,123.3,0,246.7,0"/>
<path class="st2" d="M533.3,843.4c123.3,0,123.3,12,246.7,12"/>
<path class="st2" d="M533.3,843.4c123.3,0,123.3,24.1,246.7,24.1"/>
<path class="st2" d="M533.3,891.6c123.3,0,123.3,0,246.7,0"/>
<path class="st2" d="M533.3,915.7c123.3,0,123.3,0,246.7,0"/>
<path class="st2" d="M533.3,939.8c123.3,0,123.3,0,246.7,0"/>
<path class="st2" d="M533.3,963.9c123.3,0,123.3,0,246.7,0"/>
<path class="st2" d="M533.3,988c123.3,0,123.3,0,246.7,0"/>
<g transform="translate(0,528.9022757697456)">
	<circle class="st3" cx="38.1" cy="0.1" r="7.4"/>
</g>
<circle class="st4" cx="286.7" cy="119.8" r="4.5"/>
<text transform="matrix(1 0 0 1 268.5184 112.0627)" class="st5 st6">Africa</text>
<circle class="st7" cx="533.3" cy="18.1" r="4.5"/>
<g class="st8">
	<text transform="matrix(1 0 0 1 505.2049 21.0723)" class="st9 st10">Egypt</text>
</g>
<circle class="st11" cx="780" cy="12" r="4.5"/>
<g class="st12">
	<text transform="matrix(1 0 0 1 788 15.0482)" class="st13 st10">Cairo</text>
</g>
<circle class="st11" cx="780" cy="24.1" r="4.5"/>
<g class="st12">
	<text transform="matrix(1 0 0 1 788 27.0964)" class="st13 st10">Alexandria</text>
</g>
<circle class="st7" cx="533.3" cy="48.2" r="4.5"/>
<g class="st8">
	<text transform="matrix(1 0 0 1 498.4857 51.1927)" class="st9 st10">Nigeria</text>
</g>
<circle class="st11" cx="780" cy="48.2" r="4.5"/>
<g class="st12">
	<text transform="matrix(1 0 0 1 788 51.1927)" class="st13 st10">Lagos</text>
</g>
<circle class="st7" cx="533.3" cy="72.3" r="4.5"/>
<g class="st8">
	<text transform="matrix(1 0 0 1 365.8035 75.2892)" class="st9 st10">Democratic Republic of the Congo</text>
</g>
<circle class="st11" cx="780" cy="72.3" r="4.5"/>
<g class="st12">
	<text transform="matrix(1 0 0 1 788 75.2892)" class="st13 st10">Kinshasa-Brazzaville</text>
</g>
<circle class="st7" cx="533.3" cy="96.4" r="4.5"/>
<g class="st8">
	<text transform="matrix(1 0 0 1 493.5926 99.3856)" class="st9 st10">Somalia</text>
</g>
<circle class="st11" cx="780" cy="96.4" r="4.5"/>
<g class="st12">
	<text transform="matrix(1 0 0 1 788 99.3856)" class="st13 st10">Mogadishu</text>
</g>
<circle class="st7" cx="533.3" cy="120.5" r="4.5"/>
<g class="st8">
	<text transform="matrix(1 0 0 1 501.5257 123.4819)" class="st9 st10">Sudan</text>
</g>
<circle class="st11" cx="780" cy="120.5" r="4.5"/>
<g class="st12">
	<text transform="matrix(1 0 0 1 788 123.4819)" class="st13 st10">Khartoum-Omdurman</text>
</g>
<circle class="st7" cx="533.3" cy="144.6" r="4.5"/>
<g class="st8">
	<text transform="matrix(1 0 0 1 499.0819 147.5783)" class="st9 st10">Angola</text>
</g>
<circle class="st11" cx="780" cy="144.6" r="4.5"/>
<g class="st12">
	<text transform="matrix(1 0 0 1 788 147.5783)" class="st13 st10">Luanda</text>
</g>
<circle class="st7" cx="533.3" cy="168.7" r="4.5"/>
<g class="st8">
	<text transform="matrix(1 0 0 1 489.3011 171.6747)" class="st9 st10">Tanzania</text>
</g>
<circle class="st11" cx="780" cy="168.7" r="4.5"/>
<g class="st12">
	<text transform="matrix(1 0 0 1 788 171.6747)" class="st13 st10">Dar es Salaam</text>
</g>
<circle class="st7" cx="533.3" cy="192.8" r="4.5"/>
<g class="st8">
	<text transform="matrix(1 0 0 1 477.7049 195.7711)" class="st9 st10">Ivory Coast</text>
</g>
<circle class="st11" cx="780" cy="192.8" r="4.5"/>
<g class="st12">
	<text transform="matrix(1 0 0 1 788 195.7711)" class="st13 st10">Abidjan</text>
</g>
<circle class="st7" cx="533.3" cy="216.9" r="4.5"/>
<g class="st8">
	<text transform="matrix(1 0 0 1 474.0204 219.8675)" class="st9 st10">South Africa</text>
</g>
<circle class="st11" cx="780" cy="216.9" r="4.5"/>
<g class="st12">
	<text transform="matrix(1 0 0 1 788 219.8675)" class="st13 st10">Greater Johannesburg</text>
</g>
<circle class="st4" cx="286.7" cy="341" r="4.5"/>
<text transform="matrix(1 0 0 1 273.5185 332.3011)" class="st5 st6">Asia</text>
<circle class="st7" cx="533.3" cy="265.1" r="4.5"/>
<g class="st8">
	<text transform="matrix(1 0 0 1 504.5926 268.0602)" class="st9 st10">China</text>
</g>
<circle class="st11" cx="780" cy="241" r="4.5"/>
<g class="st12">
	<text transform="matrix(1 0 0 1 788 243.9639)" class="st13 st10">Beijing</text>
</g>
<circle class="st11" cx="780" cy="253" r="4.5"/>
<g class="st12">
	<text transform="matrix(1 0 0 1 788 256.0121)" class="st13 st10">Tianjin</text>
</g>
<circle class="st11" cx="780" cy="265.1" r="4.5"/>
<g class="st12">
	<text transform="matrix(1 0 0 1 788 268.0602)" class="st13 st10">Guangzhou</text>
</g>
<circle class="st11" cx="780" cy="277.1" r="4.5"/>
<g class="st12">
	<text transform="matrix(1 0 0 1 788 280.1084)" class="st13 st10">Shenzhen</text>
</g>
<circle class="st11" cx="780" cy="289.2" r="4.5"/>
<g class="st12">
	<text transform="matrix(1 0 0 1 788 292.1566)" class="st13 st10">Shanghai</text>
</g>
<circle class="st7" cx="533.3" cy="319.3" r="4.5"/>
<g class="st8">
	<text transform="matrix(1 0 0 1 509.4803 322.2771)" class="st9 st10">India</text>
</g>
<circle class="st11" cx="780" cy="313.3" r="4.5"/>
<g class="st12">
	<text transform="matrix(1 0 0 1 788 316.2531)" class="st13 st10">Delhi</text>
</g>
<circle class="st11" cx="780" cy="325.3" r="4.5"/>
<g class="st12">
	<text transform="matrix(1 0 0 1 788 328.3012)" class="st13 st10">Mumbai</text>
</g>
<circle class="st7" cx="533.3" cy="349.4" r="4.5"/>
<g class="st8">
	<text transform="matrix(1 0 0 1 503.3626 352.3976)" class="st9 st10">Japan</text>
</g>
<circle class="st11" cx="780" cy="349.4" r="4.5"/>
<g class="st12">
	<text transform="matrix(1 0 0 1 788 352.3976)" class="st13 st10">Tokyo</text>
</g>
<circle class="st7" cx="533.3" cy="373.5" r="4.5"/>
<g class="st8">
	<text transform="matrix(1 0 0 1 485.6273 376.494)" class="st9 st10">Indonesia</text>
</g>
<circle class="st11" cx="780" cy="373.5" r="4.5"/>
<g class="st12">
	<text transform="matrix(1 0 0 1 788 376.494)" class="st13 st10">Jakarta</text>
</g>
<circle class="st7" cx="533.3" cy="397.6" r="4.5"/>
<g class="st8">
	<text transform="matrix(1 0 0 1 491.1434 400.5904)" class="st9 st10">Pakistan</text>
</g>
<circle class="st11" cx="780" cy="397.6" r="4.5"/>
<g class="st12">
	<text transform="matrix(1 0 0 1 788 400.5904)" class="st13 st10">Karachi</text>
</g>
<circle class="st4" cx="286.7" cy="528.1" r="4.5"/>
<text transform="matrix(1 0 0 1 265.0293 521.0684)" class="st5 st6">Europe</text>
<circle class="st7" cx="533.3" cy="421.7" r="4.5"/>
<g class="st8">
	<text transform="matrix(1 0 0 1 500.1239 424.6867)" class="st9 st10">Turkey</text>
</g>
<circle class="st11" cx="780" cy="421.7" r="4.5"/>
<g class="st12">
	<text transform="matrix(1 0 0 1 788 424.6867)" class="st13 st10">Istanbul</text>
</g>
<circle class="st7" cx="533.3" cy="451.8" r="4.5"/>
<g class="st8">
	<text transform="matrix(1 0 0 1 499.7103 454.8072)" class="st9 st10">Russia</text>
</g>
<circle class="st11" cx="780" cy="445.8" r="4.5"/>
<g class="st12">
	<text transform="matrix(1 0 0 1 788 448.7831)" class="st13 st10">Moscow</text>
</g>
<circle class="st11" cx="780" cy="457.8" r="4.5"/>
<g class="st12">
	<text transform="matrix(1 0 0 1 788 460.8313)" class="st13 st10">Saint Petersburg</text>
</g>
<circle class="st7" cx="533.3" cy="481.9" r="4.5"/>
<g class="st8">
	<text transform="matrix(1 0 0 1 455.0658 484.9277)" class="st9 st10">United Kingdom</text>
</g>
<circle class="st11" cx="780" cy="481.9" r="4.5"/>
<g class="st12">
	<text transform="matrix(1 0 0 1 788 484.9277)" class="st13 st10">London</text>
</g>
<circle class="st7" cx="533.3" cy="506" r="4.5"/>
<g class="st8">
	<text transform="matrix(1 0 0 1 488.098 509.0241)" class="st9 st10">Germany</text>
</g>
<circle class="st11" cx="780" cy="506" r="4.5"/>
<g class="st12">
	<text transform="matrix(1 0 0 1 788 509.0241)" class="st13 st10">Berlin</text>
</g>
<circle class="st7" cx="533.3" cy="530.1" r="4.5"/>
<g class="st8">
	<text transform="matrix(1 0 0 1 505.1996 533.1205)" class="st9 st10">Spain</text>
</g>
<circle class="st11" cx="780" cy="530.1" r="4.5"/>
<g class="st12">
	<text transform="matrix(1 0 0 1 788 533.1205)" class="st13 st10">Madrid</text>
</g>
<circle class="st7" cx="533.3" cy="554.2" r="4.5"/>
<g class="st8">
	<text transform="matrix(1 0 0 1 495.4295 557.2169)" class="st9 st10">Ukraine</text>
</g>
<circle class="st11" cx="780" cy="554.2" r="4.5"/>
<g class="st12">
	<text transform="matrix(1 0 0 1 788 557.2169)" class="st13 st10">Kiev</text>
</g>
<circle class="st7" cx="533.3" cy="578.3" r="4.5"/>
<g class="st8">
	<text transform="matrix(1 0 0 1 513.1595 581.3132)" class="st9 st10">Italy</text>
</g>
<circle class="st11" cx="780" cy="578.3" r="4.5"/>
<g class="st12">
	<text transform="matrix(1 0 0 1 788 581.3132)" class="st13 st10">Rome</text>
</g>
<circle class="st7" cx="533.3" cy="602.4" r="4.5"/>
<g class="st8">
	<text transform="matrix(1 0 0 1 499.098 605.4097)" class="st9 st10">France</text>
</g>
<circle class="st11" cx="780" cy="602.4" r="4.5"/>
<g class="st12">
	<text transform="matrix(1 0 0 1 788 605.4097)" class="st13 st10">Paris</text>
</g>
<circle class="st7" cx="533.3" cy="626.5" r="4.5"/>
<g class="st8">
	<text transform="matrix(1 0 0 1 496.0365 629.506)" class="st9 st10">Belarus</text>
</g>
<circle class="st11" cx="780" cy="626.5" r="4.5"/>
<g class="st12">
	<text transform="matrix(1 0 0 1 788 629.506)" class="st13 st10">Minsk</text>
</g>
<circle class="st4" cx="286.7" cy="731.9" r="4.5"/>
<text transform="matrix(1 0 0 1 245.9767 721.3856)" class="st5 st6">North America</text>
<circle class="st7" cx="533.3" cy="656.6" r="4.5"/>
<text transform="matrix(1 0 0 1 498.4911 659.6265)" class="st14 st9 st10">Mexico</text>
<circle class="st11" cx="780" cy="650.6" r="4.5"/>
<g class="st12">
	<text transform="matrix(1 0 0 1 788 653.6024)" class="st13 st10">Mexico City</text>
</g>
<circle class="st11" cx="780" cy="662.7" r="4.5"/>
<g class="st12">
	<text transform="matrix(1 0 0 1 788 665.6506)" class="st13 st10">Ecatepec de Morelos</text>
</g>
<circle class="st7" cx="533.3" cy="710.8" r="4.5"/>
<g class="st8">
	<text transform="matrix(1 0 0 1 467.2957 713.8434)" class="st9 st10">United States</text>
</g>
<circle class="st11" cx="780" cy="686.7" r="4.5"/>
<g class="st12">
	<text transform="matrix(1 0 0 1 788 689.747)" class="st13 st10">Los Angeles</text>
</g>
<circle class="st11" cx="780" cy="698.8" r="4.5"/>
<g class="st12">
	<text transform="matrix(1 0 0 1 788 701.7952)" class="st13 st10">Chicago</text>
</g>
<circle class="st11" cx="780" cy="710.8" r="4.5"/>
<g class="st12">
	<text transform="matrix(1 0 0 1 788 713.8434)" class="st13 st10">Houston</text>
</g>
<circle class="st11" cx="780" cy="722.9" r="4.5"/>
<g class="st12">
	<text transform="matrix(1 0 0 1 788 725.8915)" class="st13 st10">Philadelphia</text>
</g>
<circle class="st11" cx="780" cy="734.9" r="4.5"/>
<g class="st12">
	<text transform="matrix(1 0 0 1 788 737.9398)" class="st13 st10">New York City</text>
</g>
<circle class="st7" cx="533.3" cy="765.1" r="4.5"/>
<g class="st8">
	<text transform="matrix(1 0 0 1 494.8011 768.0602)" class="st9 st10">Canada</text>
</g>
<circle class="st11" cx="780" cy="759" r="4.5"/>
<g class="st12">
	<text transform="matrix(1 0 0 1 788 762.0361)" class="st13 st10">Toronto</text>
</g>
<circle class="st11" cx="780" cy="771.1" r="4.5"/>
<g class="st12">
	<text transform="matrix(1 0 0 1 788 774.0844)" class="st13 st10">Montreal</text>
</g>
<circle class="st7" cx="533.3" cy="795.2" r="4.5"/>
<g class="st8">
	<text transform="matrix(1 0 0 1 507.0365 798.1807)" class="st9 st10">Cuba</text>
</g>
<circle class="st11" cx="780" cy="795.2" r="4.5"/>
<g class="st12">
	<text transform="matrix(1 0 0 1 788 798.1807)" class="st13 st10">Havana</text>
</g>
<circle class="st4" cx="286.7" cy="923.7" r="4.5"/>
<text transform="matrix(1 0 0 1 250.4769 907.6316)" class="st5 st6">South America</text>
<circle class="st7" cx="533.3" cy="843.4" r="4.5"/>
<g class="st8">
	<text transform="matrix(1 0 0 1 505.828 846.3735)" class="st9 st10">Brazil</text>
</g>
<circle class="st11" cx="780" cy="819.3" r="4.5"/>
<g class="st12">
	<text transform="matrix(1 0 0 1 788 822.2771)" class="st13 st10">Fortaleza</text>
</g>
<circle class="st11" cx="780" cy="831.3" r="4.5"/>
<g class="st12">
	<text transform="matrix(1 0 0 1 788 834.3253)" class="st13 st10">Rio de Janeiro</text>
</g>
<circle class="st11" cx="780" cy="843.4" r="4.5"/>
<g class="st12">
	<text transform="matrix(1 0 0 1 788 846.3735)" class="st13 st10">Salvador</text>
</g>
<circle class="st11" cx="780" cy="855.4" r="4.5"/>
<g class="st12">
	<text transform="matrix(1 0 0 1 788 858.4217)" class="st13 st10">Brasília</text>
</g>
<circle class="st11" cx="780" cy="867.5" r="4.5"/>
<g class="st12">
	<text transform="matrix(1 0 0 1 788 870.4699)" class="st13 st10">São Paulo</text>
</g>
<circle class="st7" cx="533.3" cy="891.6" r="4.5"/>
<g class="st8">
	<text transform="matrix(1 0 0 1 510.098 894.5663)" class="st9 st10">Peru</text>
</g>
<circle class="st11" cx="780" cy="891.6" r="4.5"/>
<g class="st12">
	<text transform="matrix(1 0 0 1 788 894.5663)" class="st13 st10">Lima</text>
</g>
<circle class="st7" cx="533.3" cy="915.7" r="4.5"/>
<g class="st8">
	<text transform="matrix(1 0 0 1 486.868 918.6627)" class="st9 st10">Colombia</text>
</g>
<circle class="st11" cx="780" cy="915.7" r="4.5"/>
<g class="st12">
	<text transform="matrix(1 0 0 1 788 918.6627)" class="st13 st10">Bogotá</text>
</g>
<circle class="st7" cx="533.3" cy="939.8" r="4.5"/>
<g class="st8">
	<text transform="matrix(1 0 0 1 508.2664 942.759)" class="st9 st10">Chile</text>
</g>
<circle class="st11" cx="780" cy="939.8" r="4.5"/>
<g class="st12">
	<text transform="matrix(1 0 0 1 788 942.759)" class="st13 st10">Santiago</text>
</g>
<circle class="st7" cx="533.3" cy="963.9" r="4.5"/>
<g class="st8">
	<text transform="matrix(1 0 0 1 481.9535 966.8554)" class="st9 st10">Venezuela</text>
</g>
<circle class="st11" cx="780" cy="963.9" r="4.5"/>
<g class="st12">
	<text transform="matrix(1 0 0 1 788 966.8554)" class="st13 st10">Caracas</text>
</g>
<circle class="st7" cx="533.3" cy="988" r="4.5"/>
<g class="st8">
	<text transform="matrix(1 0 0 1 486.245 990.9518)" class="st9 st10">Argentina</text>
</g>
<circle class="st11" cx="780" cy="988" r="4.5"/>
<g class="st12">
	<text transform="matrix(1 0 0 1 788 990.9518)" class="st13 st10">Buenos Aires</text>
</g>
</svg>
