<svg width="847" height="920" xmlns="http://www.w3.org/2000/svg" version="1.1"><g transform="translate(0,10)"><g><path class="link" d="M5,251.00840336134453C213,251.00840336134453 213,251.0084033613446 421,251.0084033613446" style="stroke-width: 422.017; fill: none; stroke: rgb(191, 105, 105); stroke-opacity: 0.4;"><title>682</title></path><path class="link" d="M5,755.1145912910619C213,755.1145912910619 213,755.1145912910619 421,755.1145912910619" style="stroke-width: 209.771; fill: none; stroke: rgb(148, 191, 105); stroke-opacity: 0.4;"><title>339</title></path><path class="link" d="M426,110.85179526356002C634,110.85179526356002 634,70.85179526356008 842,70.85179526356008" style="stroke-width: 141.704; fill: none; stroke: rgb(105, 191, 191); stroke-opacity: 0.4;"><title>229</title></path><path class="link" d="M426,238.94194041252868C634,238.94194041252868 634,280.1031321619558 842,280.1031321619558" style="stroke-width: 114.477; fill: none; stroke: rgb(105, 191, 191); stroke-opacity: 0.4;"><title>185</title></path><path class="link" d="M5,600.4163483575247C213,600.4163483575247 213,511.82964094728806 421,511.82964094728806" style="stroke-width: 99.6257; fill: none; stroke: rgb(148, 191, 105); stroke-opacity: 0.4;"><title>161</title></path><path class="link" d="M426,341.35217723453025C634,341.35217723453025 634,440.77922077922085 842,440.77922077922085" style="stroke-width: 90.3438; fill: none; stroke: rgb(105, 191, 191); stroke-opacity: 0.4;"><title>146</title></path><path class="link" d="M5,501.3101604278075C213,501.3101604278075 213,610.9358288770053 421,610.9358288770053" style="stroke-width: 78.5867; fill: none; stroke: rgb(191, 105, 105); stroke-opacity: 0.4;"><title>127</title></path><path class="link" d="M426,607.2230710466004C634,607.2230710466004 634,177.28418640183355 842,177.28418640183355" style="stroke-width: 71.1612; fill: none; stroke: rgb(148, 105, 191); stroke-opacity: 0.4;"><title>115</title></path><path class="link" d="M426,462.94499618029033C634,462.94499618029033 634,675.1909854851032 842,675.1909854851032" style="stroke-width: 55.0726; fill: none; stroke: rgb(105, 191, 191); stroke-opacity: 0.4;"><title>89</title></path><path class="link" d="M426,717.6776165011458C634,717.6776165011458 634,512.5592055003821 842,512.5592055003821" style="stroke-width: 53.2162; fill: none; stroke: rgb(148, 105, 191); stroke-opacity: 0.4;"><title>86</title></path><path class="link" d="M426,410.96638655462186C634,410.96638655462186 634,573.6096256684493 842,573.6096256684493" style="stroke-width: 48.8846; fill: none; stroke: rgb(105, 191, 191); stroke-opacity: 0.4;"><title>79</title></path><path class="link" d="M426,666.9365928189458C634,666.9365928189458 634,361.47440794499624 842,361.47440794499624" style="stroke-width: 48.2659; fill: none; stroke: rgb(148, 105, 191); stroke-opacity: 0.4;"><title>78</title></path><path class="link" d="M426,764.087089381207C634,764.087089381207 634,617.8533231474408 842,617.8533231474408" style="stroke-width: 39.6028; fill: none; stroke: rgb(148, 105, 191); stroke-opacity: 0.4;"><title>64</title></path><path class="link" d="M426,798.1207028265851C634,798.1207028265851 634,716.9595110771581 842,716.9595110771581" style="stroke-width: 28.4645; fill: none; stroke: rgb(148, 105, 191); stroke-opacity: 0.4;"><title>46</title></path><path class="link" d="M426,503.78533231474415C634,503.78533231474415 634,754.4957983193277 842,754.4957983193277" style="stroke-width: 26.6081; fill: none; stroke: rgb(105, 191, 191); stroke-opacity: 0.4;"><title>43</title></path><path class="link" d="M426,530.3934300993125C634,530.3934300993125 634,815.2368220015279 842,815.2368220015279" style="stroke-width: 26.6081; fill: none; stroke: rgb(105, 191, 191); stroke-opacity: 0.4;"><title>43</title></path><path class="link" d="M426,824.4194041252864C634,824.4194041252864 634,779.8663101604278 842,779.8663101604278" style="stroke-width: 24.1329; fill: none; stroke: rgb(148, 105, 191); stroke-opacity: 0.4;"><title>39</title></path><path class="link" d="M426,844.8395721925133C634,844.8395721925133 634,836.8945760122231 842,836.8945760122231" style="stroke-width: 16.7074; fill: none; stroke: rgb(148, 105, 191); stroke-opacity: 0.4;"><title>27</title></path><path class="link" d="M426,550.5042016806723C634,550.5042016806723 634,862.0550038197097 842,862.0550038197097" style="stroke-width: 13.6134; fill: none; stroke: rgb(105, 191, 191); stroke-opacity: 0.4;"><title>22</title></path><path class="link" d="M426,856.287242169595C634,856.287242169595 634,871.955691367456 842,871.955691367456" style="stroke-width: 6.18793; fill: none; stroke: rgb(148, 105, 191); stroke-opacity: 0.4;"><title>10</title></path><path class="link" d="M426,559.1673032849503C634,559.1673032849503 634,886.9060351413292 842,886.9060351413292" style="stroke-width: 3.71276; fill: none; stroke: rgb(105, 191, 191); stroke-opacity: 0.4;"><title>6</title></path><path class="link" d="M426,859.6906035141329C634,859.6906035141329 634,889.0718105423988 842,889.0718105423988" style="stroke-width: 1; fill: none; stroke: rgb(148, 105, 191); stroke-opacity: 0.4;"><title>1</title></path><path class="link" d="M426,561.33307868602C634,561.33307868602 634,899.6906035141329 842,899.6906035141329" style="stroke-width: 1; fill: none; stroke: rgb(105, 191, 191); stroke-opacity: 0.4;"><title>1</title></path></g><g><g class="node" transform="translate(842,741.1917494270435)"><rect height="50.74102368220015" width="5" style="fill: rgb(102, 102, 102);"><title>0 - 9
82</title></rect><text x="-6" y="25.370511841100075" dy=".35em" text-anchor="end" style="font-size: 11px; font-family: Arial, Helvetica; pointer-events: none;">0 - 9</text></g><g class="node" transform="translate(842,549.1673032849504)"><rect height="88.48739495798318" width="5" style="fill: rgb(102, 102, 102);"><title>10 - 19
143</title></rect><text x="-6" y="44.24369747899159" dy=".35em" text-anchor="end" style="font-size: 11px; font-family: Arial, Helvetica; pointer-events: none;">10 - 19</text></g><g class="node" transform="translate(842,1.1368683772161603e-13)"><rect height="212.86478227654698" width="5" style="fill: rgb(102, 102, 102);"><title>20 - 29
344</title></rect><text x="-6" y="106.43239113827349" dy=".35em" text-anchor="end" style="font-size: 11px; font-family: Arial, Helvetica; pointer-events: none;">20 - 29</text></g><g class="node" transform="translate(842,395.60733384262807)"><rect height="143.55996944232237" width="5" style="fill: rgb(102, 102, 102);"><title>30 - 39
232</title></rect><text x="-6" y="71.77998472116118" dy=".35em" text-anchor="end" style="font-size: 11px; font-family: Arial, Helvetica; pointer-events: none;">30 - 39</text></g><g class="node" transform="translate(842,647.6546982429336)"><rect height="83.53705118411" width="5" style="fill: rgb(102, 102, 102);"><title>40 - 49
135</title></rect><text x="-6" y="41.768525592055" dy=".35em" text-anchor="end" style="font-size: 11px; font-family: Arial, Helvetica; pointer-events: none;">40 - 49</text></g><g class="node" transform="translate(842,801.9327731092437)"><rect height="43.31550802139037" width="5" style="fill: rgb(102, 102, 102);"><title>50 - 59
70</title></rect><text x="-6" y="21.657754010695186" dy=".35em" text-anchor="end" style="font-size: 11px; font-family: Arial, Helvetica; pointer-events: none;">50 - 59</text></g><g class="node" transform="translate(842,855.248281130634)"><rect height="19.80137509549274" width="5" style="fill: rgb(102, 102, 102);"><title>60 - 69
32</title></rect><text x="-6" y="9.90068754774637" dy=".35em" text-anchor="end" style="font-size: 11px; font-family: Arial, Helvetica; pointer-events: none;">60 - 69</text></g><g class="node" transform="translate(842,885.0496562261268)"><rect height="4.331550802139037" width="5" style="fill: rgb(102, 102, 102);"><title>70 - 79
7</title></rect><text x="-6" y="2.1657754010695185" dy=".35em" text-anchor="end" style="font-size: 11px; font-family: Arial, Helvetica; pointer-events: none;">70 - 79</text></g><g class="node" transform="translate(842,899.3812070282659)"><rect height="0.6187929717341482" width="5" style="fill: rgb(102, 102, 102);"><title>80 - 89
1</title></rect><text x="-6" y="0.3093964858670741" dy=".35em" text-anchor="end" style="font-size: 11px; font-family: Arial, Helvetica; pointer-events: none;">80 - 89</text></g><g class="node" transform="translate(842,222.8647822765471)"><rect height="162.74255156608098" width="5" style="fill: rgb(102, 102, 102);"><title>unknown
263</title></rect><text x="-6" y="81.37127578304049" dy=".35em" text-anchor="end" style="font-size: 11px; font-family: Arial, Helvetica; pointer-events: none;">unknown</text></g><g class="node" transform="translate(421,571.6424751718869)"><rect height="288.357524828113" width="5"><title>female
466</title></rect><text x="11" y="144.1787624140565" dy=".35em" text-anchor="start" style="font-size: 11px; font-family: Arial, Helvetica; pointer-events: none;">female</text></g><g class="node" transform="translate(421,40.00000000000006)"><rect height="521.6424751718869" width="5"><title>male
843</title></rect><text x="11" y="260.82123758594344" dy=".35em" text-anchor="start" style="font-size: 11px; font-family: Arial, Helvetica; pointer-events: none;">male</text></g><g class="node" transform="translate(0,40)"><rect height="500.60351413292585" width="5"><title>no
809</title></rect><text x="11" y="250.30175706646293" dy=".35em" text-anchor="start" style="font-size: 11px; font-family: Arial, Helvetica; pointer-events: none;">no</text></g><g class="node" transform="translate(0,550.6035141329259)"><rect height="309.3964858670741" width="5"><title>yes
500</title></rect><text x="11" y="154.69824293353705" dy=".35em" text-anchor="start" style="font-size: 11px; font-family: Arial, Helvetica; pointer-events: none;">yes</text></g></g></g></svg>