<svg width="800" height="400" xmlns="http://www.w3.org/2000/svg" version="1.1"><g transform="translate(100,100)"><g class="arc"><path d="M5.8170722959499274e-15,-95A95,95 0 1,1 -59.76476277219202,-73.84560332737225L0,0Z" style="fill: rgb(191, 105, 105);"></path></g><g class="arc"><path d="M-59.76476277219202,-73.84560332737225A95,95 0 0,1 -29.849486295300128,-90.18873636938645L0,0Z" style="fill: rgb(105, 191, 105);"></path></g><g class="arc"><path d="M-29.849486295300128,-90.18873636938645A95,95 0 0,1 -1.0182816675936167e-13,-95L0,0Z" style="fill: rgb(105, 105, 191);"></path></g><text transform="translate(15.849557106981084,44.77769019849668)" dy=".35em" style="text-anchor: middle; font-size: 10px; font-family: Arial, Helvetica; fill: rgb(66, 66, 66);">1,334</text><text transform="translate(-22.773081194635644,-41.68497058776139)" dy=".35em" style="text-anchor: middle; font-size: 10px; font-family: Arial, Helvetica; fill: rgb(66, 66, 66);">85.9</text><text transform="translate(-7.5586874266327895,-46.89473578544252)" dy=".35em" style="text-anchor: middle; font-size: 10px; font-family: Arial, Helvetica; fill: rgb(66, 66, 66);">76.1</text><text y="105" style="text-anchor: middle; font-size: 11px; font-family: Arial, Helvetica;">Adventure</text></g><g transform="translate(300,100)"><g class="arc"><path d="M5.425345238671355e-15,-88.60261166646076A88.60261166646076,88.60261166646076 0 1,1 -43.505479623495724,-77.18611297926101L0,0Z" style="fill: rgb(191, 105, 105);"></path></g><g class="arc"><path d="M-43.505479623495724,-77.18611297926101A88.60261166646076,88.60261166646076 0 0,1 -22.261569589921383,-85.76039478401866L0,0Z" style="fill: rgb(105, 191, 105);"></path></g><g class="arc"><path d="M-22.261569589921383,-85.76039478401866A88.60261166646076,88.60261166646076 0 0,1 -1.6276035716014064e-14,-88.60261166646076L0,0Z" style="fill: rgb(105, 105, 191);"></path></g><text transform="translate(11.244618711702818,42.85048714493028)" dy=".35em" style="text-anchor: middle; font-size: 10px; font-family: Arial, Helvetica; fill: rgb(66, 66, 66);">1,195</text><text transform="translate(-16.58090594386246,-41.08137359692588)" dy=".35em" style="text-anchor: middle; font-size: 10px; font-family: Arial, Helvetica; fill: rgb(66, 66, 66);">53.7</text><text transform="translate(-5.61056858423099,-43.944592598988244)" dy=".35em" style="text-anchor: middle; font-size: 10px; font-family: Arial, Helvetica; fill: rgb(66, 66, 66);">52.6</text><text y="98.60261166646076" style="text-anchor: middle; font-size: 11px; font-family: Arial, Helvetica;">Action</text></g><g transform="translate(500,100)"><g class="arc"><path d="M2.7271220133526573e-15,-44.537282345430306A44.537282345430306,44.537282345430306 0 1,1 -17.082987185596373,41.130780050144054L0,0Z" style="fill: rgb(191, 105, 105);"></path></g><g class="arc"><path d="M-17.082987185596373,41.130780050144054A44.537282345430306,44.537282345430306 0 0,1 -26.260913684526237,-35.97129315399212L0,0Z" style="fill: rgb(105, 191, 105);"></path></g><g class="arc"><path d="M-26.260913684526237,-35.97129315399212A44.537282345430306,44.537282345430306 0 0,1 3.13756870112446e-14,-44.537282345430306L0,0Z" style="fill: rgb(105, 105, 191);"></path></g><text transform="translate(21.83867750946024,4.3548299986268155)" dy=".35em" style="text-anchor: middle; font-size: 10px; font-family: Arial, Helvetica; fill: rgb(66, 66, 66);">185</text><text transform="translate(-22.112529585925643,2.6321882513809074)" dy=".35em" style="text-anchor: middle; font-size: 10px; font-family: Arial, Helvetica; fill: rgb(66, 66, 66);">110.8</text><text transform="translate(-6.905666868476431,-21.170832406421138)" dy=".35em" style="text-anchor: middle; font-size: 10px; font-family: Arial, Helvetica; fill: rgb(66, 66, 66);">33</text><text y="54.537282345430306" style="text-anchor: middle; font-size: 11px; font-family: Arial, Helvetica;">Drama</text></g><g transform="translate(700,100)"><g class="arc"><path d="M2.6565375657549955e-15,-43.384550837099816A43.384550837099816,43.384550837099816 0 1,1 -27.438358549206352,-33.605888345081624L0,0Z" style="fill: rgb(191, 105, 105);"></path></g><g class="arc"><path d="M-27.438358549206352,-33.605888345081624A43.384550837099816,43.384550837099816 0 0,1 -12.740104952004861,-41.471785314220554L0,0Z" style="fill: rgb(105, 191, 105);"></path></g><g class="arc"><path d="M-12.740104952004861,-41.471785314220554A43.384550837099816,43.384550837099816 0 0,1 -7.969612697264986e-15,-43.384550837099816L0,0Z" style="fill: rgb(105, 105, 191);"></path></g><text transform="translate(7.28219472415257,20.433415104523007)" dy=".35em" style="text-anchor: middle; font-size: 10px; font-family: Arial, Helvetica; fill: rgb(66, 66, 66);">278</text><text transform="translate(-10.235298189498645,-19.125728320936442)" dy=".35em" style="text-anchor: middle; font-size: 10px; font-family: Arial, Helvetica; fill: rgb(66, 66, 66);">19.2</text><text transform="translate(-3.2207233866557017,-21.451847326066666)" dy=".35em" style="text-anchor: middle; font-size: 10px; font-family: Arial, Helvetica; fill: rgb(66, 66, 66);">14.8</text><text y="53.384550837099816" style="text-anchor: middle; font-size: 11px; font-family: Arial, Helvetica;">Thriller/Suspense</text></g><g transform="translate(100,300)"><g class="arc"><path d="M1.8627361560747613e-15,-30.42079001670801A30.42079001670801,30.42079001670801 0 1,1 -11.4253463358866,-28.193721399376926L0,0Z" style="fill: rgb(191, 105, 105);"></path></g><g class="arc"><path d="M-11.4253463358866,-28.193721399376926A30.42079001670801,30.42079001670801 0 0,1 -9.55446170555778,-28.881425289581394L0,0Z" style="fill: rgb(105, 191, 105);"></path></g><g class="arc"><path d="M-9.55446170555778,-28.881425289581394A30.42079001670801,30.42079001670801 0 0,1 -5.588208468224283e-15,-30.42079001670801L0,0Z" style="fill: rgb(105, 105, 191);"></path></g><text transform="translate(2.9100942158422716,14.929416196391665)" dy=".35em" style="text-anchor: middle; font-size: 10px; font-family: Arial, Helvetica; fill: rgb(66, 66, 66);">144</text><text transform="translate(-5.2477690622805175,-14.276450405445042)" dy=".35em" style="text-anchor: middle; font-size: 10px; font-family: Arial, Helvetica; fill: rgb(66, 66, 66);">1.6</text><text transform="translate(-2.4194186058598257,-15.016741654559413)" dy=".35em" style="text-anchor: middle; font-size: 10px; font-family: Arial, Helvetica; fill: rgb(66, 66, 66);">7.8</text><text y="40.42079001670801" style="text-anchor: middle; font-size: 11px; font-family: Arial, Helvetica;">Comedy</text></g><g transform="translate(300,300)"><g class="arc"><path d="M1.4036141640480612e-15,-22.922758872604117A22.922758872604117,22.922758872604117 0 1,1 -11.233894966625419,-19.981303216016187L0,0Z" style="fill: rgb(191, 105, 105);"></path></g><g class="arc"><path d="M-11.233894966625419,-19.981303216016187A22.922758872604117,22.922758872604117 0 0,1 -8.089855717542086,-21.447776313662505L0,0Z" style="fill: rgb(105, 191, 105);"></path></g><g class="arc"><path d="M-8.089855717542086,-21.447776313662505A22.922758872604117,22.922758872604117 0 0,1 -4.210842492144183e-15,-22.922758872604117L0,0Z" style="fill: rgb(105, 105, 191);"></path></g><text transform="translate(2.903150847579714,11.087602704781808)" dy=".35em" style="text-anchor: middle; font-size: 10px; font-family: Arial, Helvetica; fill: rgb(66, 66, 66);">80</text><text transform="translate(-4.844828969181888,-10.387052076612674)" dy=".35em" style="text-anchor: middle; font-size: 10px; font-family: Arial, Helvetica; fill: rgb(66, 66, 66);">2.1</text><text transform="translate(-2.055804877046798,-11.275499318894854)" dy=".35em" style="text-anchor: middle; font-size: 10px; font-family: Arial, Helvetica; fill: rgb(66, 66, 66);">5</text><text y="32.92275887260412" style="text-anchor: middle; font-size: 11px; font-family: Arial, Helvetica;">Romantic Comedy</text></g></svg>