<?xml version="1.0" encoding="utf-8"?>
<!-- Generator: Adobe Illustrator 19.2.0, SVG Export Plug-In . SVG Version: 6.00 Build 0)  -->
<svg version="1.1" id="Layer_1" xmlns="http://www.w3.org/2000/svg" xmlns:xlink="http://www.w3.org/1999/xlink" x="0px" y="0px"
	 viewBox="0 0 847 500" style="enable-background:new 0 0 847 500;" xml:space="preserve">
<style type="text/css">
	.st0{fill:#BF6969;stroke:#FFFFFF;}
	.st1{fill:#FFFFFF;}
	.st2{font-family:'CenturyGothic-Bold';}
	.st3{font-size:13px;}
	.st4{fill:#BFBF69;stroke:#FFFFFF;}
	.st5{fill:#69BF69;stroke:#FFFFFF;}
	.st6{fill:#69BFBF;stroke:#FFFFFF;}
	.st7{fill:#6969BF;stroke:#FFFFFF;}
	.st8{fill:#BF69BF;stroke:#FFFFFF;}
</style>
<rect x="184.5" y="5.5" class="st0" width="658" height="232"/>
<title>Action: 1,195</title>
<text transform="matrix(1 0 0 1 481.2139 125.35)" class="st1 st2 st3">Action</text>
<rect x="5.5" y="165.5" class="st4" width="179" height="132"/>
<title>Drama: 185</title>
<text transform="matrix(1 0 0 1 61.4973 235.35)" class="st1 st2 st3">Drama</text>
<rect x="184.5" y="237.5" class="st5" width="658" height="258"/>
<title>Adventure: 1,334</title>
<text transform="matrix(1 0 0 1 471.4277 370.35)" class="st1 st2 st3">Adventure</text>
<rect x="5.5" y="62.5" class="st6" width="179" height="103"/>
<title>Comedy: 144</title>
<text transform="matrix(1 0 0 1 57.52 117.85)" class="st1 st2 st3">Comedy</text>
<rect x="5.5" y="297.5" class="st7" width="179" height="198"/>
<title>Thriller/Suspense: 278</title>
<text transform="matrix(1 0 0 1 35.2031 400.35)" class="st1 st2 st3">Thriller/Suspense</text>
<rect x="5.5" y="5.5" class="st8" width="179" height="57"/>
<title>Romantic Comedy: 80</title>
<text transform="matrix(1 0 0 1 32.762 37.85)" class="st1 st2 st3">Romantic Comedy</text>
</svg>
